<?xml version="1.0"?>
<svg xmlns="http://www.w3.org/2000/svg" id="outline" viewBox="0 0 512 512" width="512" height="512"><path d="M104,408a24,24,0,1,0,24,24A24.0275,24.0275,0,0,0,104,408Zm0,32a8,8,0,1,1,8-8A8.00917,8.00917,0,0,1,104,440Z"/><circle cx="248" cy="184" r="8"/><path d="M245.65723,210.34277l-11.31446,11.31446A35.08246,35.08246,0,0,0,259.31348,232H280V216H259.31348A19.18268,19.18268,0,0,1,245.65723,210.34277Z"/><circle cx="280" cy="184" r="8"/><path d="M481.09473,389.78027l14.30273-34.73437a7.99961,7.99961,0,0,0-4.32031-10.43067L426.85034,317.854l-27.56909-41.355A63.87277,63.87277,0,0,0,346.0293,248H301.917A55.67322,55.67322,0,0,0,312,216V148.94336l.64453-.32227A27.77652,27.77652,0,0,0,300.22266,96H248a48.05375,48.05375,0,0,0-48,48v72a55.67322,55.67322,0,0,0,10.083,32H165.9707a63.87277,63.87277,0,0,0-53.25195,28.499l-61,91.501H24a8.00045,8.00045,0,0,0-7.53418,10.69043l40,112A8.0003,8.0003,0,0,0,64,496H264a24.0275,24.0275,0,0,0,24-24V456a8.00039,8.00039,0,0,0-8-8H178.20947L176,441.814V320a7.99982,7.99982,0,0,0-14.50977-4.64941L123.88354,368H70.94775l55.0835-82.626A47.90543,47.90543,0,0,1,165.9707,264H202.584l13.98829,34.9707a8.00046,8.00046,0,0,0,13.085,2.68653l8.15161-8.15161,1.8728,3.74536L224.1084,390.68457a8.00582,8.00582,0,0,0,2.23437,6.97266l24,24a8.00181,8.00181,0,0,0,11.31446,0l24-24a8.00582,8.00582,0,0,0,2.23437-6.97266L272.31836,297.251l1.8728-3.74536,8.15161,8.15161a8,8,0,0,0,13.085-2.68653L309.416,264H346.0293a47.90543,47.90543,0,0,1,39.93945,21.374l14.25732,21.38648-5.14892-2.14527a8.001,8.001,0,0,0-10.5332,4.48536l-13.57129,34.89795-20.46289-28.64795A7.99982,7.99982,0,0,0,336,320V433.92773L328.544,453.10059a8.001,8.001,0,0,0,4.92578,10.48925L336,464.43335V496h16V469.7666l77.46973,25.82324a7.99389,7.99389,0,0,0,9.92773-4.54394L450.53418,464H464a32.03667,32.03667,0,0,0,32-32V408a8.00235,8.00235,0,0,0-2.34277-5.65723ZM272,464v8a8.00917,8.00917,0,0,1-8,8H189.63794l-5.71436-16ZM160,344.96387v52.05005l-8.46582-23.70435A8.0003,8.0003,0,0,0,144,368h-.45459ZM138.3623,384l34.28614,96H69.6377L35.35156,384ZM216,144a32.03667,32.03667,0,0,1,32-32h52.22266a11.77675,11.77675,0,0,1,5.2666,22.31055L302.11108,136H248a8.00235,8.00235,0,0,0-5.65723,2.34277L216,164.68555Zm10.92188,137.76465L219.81592,264h7.374a55.741,55.741,0,0,0,12.05786,5.43823ZM256,404.68652l-15.43164-15.43261L254.77734,304h2.44532l14.209,85.25391Zm-6.26562-123.10644L256,275.31445l6.26562,6.26563L259.05566,288h-6.11132Zm35.34374.18457L272.7522,269.43823A55.741,55.741,0,0,0,284.81006,264h7.374ZM296,216a40,40,0,0,1-80,0V187.31348L251.31348,152H296Zm56,128.96387,12.0415,16.85742L352,392.78516Zm75.44531,133.085L346.502,451.06738l49.98438-128.53125,81.083,33.78418-9.061,22.0044A19.3201,19.3201,0,0,0,440,395.31348V400H416a8.00039,8.00039,0,0,0-8,8v32a24.0275,24.0275,0,0,0,24,24h1.23047ZM480,432a16.01833,16.01833,0,0,1-16,16H432a8.00917,8.00917,0,0,1-8-8V416h24a8.00039,8.00039,0,0,0,8-8V395.31348a3.31318,3.31318,0,0,1,5.65625-2.34278L480,411.31348Z"/><path d="M72.94238,291.7666l14.11524-7.5332L60.59546,234.64648l49.35083-24.67529,19.08008,33.94873,13.94726-7.83984L112,180.96973V154.57129a15.76,15.76,0,0,0-24-13.44214V112a8.00039,8.00039,0,0,0-8-8H72V95.19507a40,40,0,1,0-16,0V104H48a8.00039,8.00039,0,0,0-8,8v20.13379l-1.084.65039a47.20017,47.20017,0,0,0-17.35743,62.69629ZM40,56A24,24,0,1,1,64,80,24.0275,24.0275,0,0,1,40,56Zm16,64H72v36.136a32.20577,32.20577,0,0,0-6.56421,11.719A7.92514,7.92514,0,0,1,56,160ZM40,152.44189V160a24.0275,24.0275,0,0,0,24,24v7.06348H80V177.28516A16.07757,16.07757,0,0,1,84.91309,165.749L96,155.0957v27.96778a8.00045,8.00045,0,0,0,1.02637,3.91992l5.07129,9.02344-49.03785,24.519-17.385-32.57764A31.12846,31.12846,0,0,1,40,152.44189Z"/><path d="M419.65527,281.55371l9.47461,12.89258A48.88768,48.88768,0,0,0,442.793,279.06445l47.1543-83.21191a46.56122,46.56122,0,0,0-1.376-48.1875L488,148.03345V80a24.0275,24.0275,0,0,0-24-24H432a24.0275,24.0275,0,0,0-24,24v60.86182a15.51117,15.51117,0,0,0-2.666,1.8833A15.7873,15.7873,0,0,0,400,154.57129v26.39844l-30.97363,55.11035,13.94726,7.83984,19.08008-33.94873,47.92358,23.96192L428.87305,271.1748A32.96581,32.96581,0,0,1,419.65527,281.55371ZM432,72h8a8,8,0,0,0,16,0h8a8.00917,8.00917,0,0,1,8,8v72a8.00917,8.00917,0,0,1-8,8H442.9082a31.79126,31.79126,0,0,0-4.73535-5.78809L426.709,143.19629A15.50789,15.50789,0,0,0,424,141.12891V80A8.00917,8.00917,0,0,1,432,72ZM409.90234,196.00684l5.07129-9.02344A8.00045,8.00045,0,0,0,416,183.06348V155.0957L427.08691,165.749A16.07757,16.07757,0,0,1,432,177.28516v13.77832h16V177.28516c0-.4292-.01562-.85743-.0332-1.28516H464a23.89428,23.89428,0,0,0,15.84619-5.99756c.09107.95947.15381,1.9231.15381,2.894a30.61914,30.61914,0,0,1-3.97266,15.06739l-18.15088,32.03Z"/></svg>
